<svg xmlns="http://www.w3.org/2000/svg" viewBox="0 0 853.03 328.02"><defs><style>.cls-1,.cls-2{fill:#094777;}.cls-2{font-size:60px;font-family:UVNBaiSau, UVN Bai Sau;letter-spacing:0.12em;}.cls-3{fill:#82c80a;}</style></defs><title>Asset 2</title><g id="Layer_2" data-name="Layer 2"><g id="Layer_1-2" data-name="Layer 1"><path class="cls-1" d="M361.26,207.13q0,16-10.69,26.72T324,244.54H206.67v-31H323.72q6.64,0,6.65-6.39t-6.65-6.38H235.87a36.4,36.4,0,0,1-26.59-10.69q-10.82-10.68-10.82-27,0-16,10.82-26.66t26.59-10.62H353.3v30.89H236.13q-6.65,0-6.65,6.39,0,6.78,6.65,6.78H324q15.9,0,26.59,10.62T361.26,207.13Z"/><text class="cls-2" transform="translate(1.73 313.87) scale(0.95 1)">Online Service Development</text><path class="cls-1" d="M508.52,227.9A16.78,16.78,0,0,1,534,213.53a61,61,0,0,0,6.49-28.46q0-25.81-16.82-42.62t-42.36-16.82H377.7V244.37H481.31q16.88,0,29.92-7.34A16.69,16.69,0,0,1,508.52,227.9Zm-27.47-14.55H408.72V156.52h72.33q13,.27,20.79,7.89t7.76,20.66q0,13.16-7.76,20.59T481.05,213.35Z"/><circle class="cls-3" cx="527.65" cy="230.12" r="14.38"/><path class="cls-3" d="M767.48,112.32h20.71s-246.78-206.55-750-4.42c0,0,504.92-246.68,802.17,5.92l4.43,4.14H767.48Z"/><path class="cls-1" d="M140.23,125.77H45.07C20.18,125.77,0,145,0,168.64V201.3C0,225,20.18,244.17,45.07,244.17h95.16c24.89,0,45.07-19.19,45.07-42.87V168.64C185.3,145,165.12,125.77,140.23,125.77Zm-2.51,73.83c0,9-7.69,16.33-17.17,16.33H64.75c-9.49,0-17.17-7.31-17.17-16.33V170.34c0-9,7.68-16.33,17.17-16.33h55.8c9.48,0,17.17,7.31,17.17,16.33Z"/><polygon class="cls-1" points="533.7 125.74 576.58 125.74 611.48 198.49 647.74 125.74 691.99 125.62 634.05 243.42 587.53 243.42 533.7 125.74"/><polygon class="cls-1" points="701.5 125.83 753.87 125.83 804.41 182.98 804.41 125.83 851.09 125.83 851.09 244.45 799.63 244.45 743.85 177.06 743.85 244.22 701.5 244.22 701.5 125.83"/></g></g></svg>